<svg xmlns="http://www.w3.org/2000/svg" width="52" height="42.802" viewBox="0 0 52 42.802">
  <path id="Path_80508" data-name="Path 80508" d="M46.687,55.328a.436.436,0,0,1-.433.433H15.747a.433.433,0,1,1,0-.867H46.253A.436.436,0,0,1,46.687,55.328ZM57,14.555v32.54a1.6,1.6,0,0,1-1.595,1.595H38v4.3h5.639a.433.433,0,1,1,0,.867H18.364a.433.433,0,1,1,0-.867H24v-4.3H6.595A1.594,1.594,0,0,1,5,47.095V14.555A1.6,1.6,0,0,1,6.595,12.96h48.81A1.594,1.594,0,0,1,57,14.555ZM21.669,43.547A1.338,1.338,0,1,0,23,42.3,1.3,1.3,0,0,0,21.669,43.547Zm.9-8.274a23.09,23.09,0,0,0-4.125,2.011c-1.277.867-1.7,6.748-1.687,10.539H29.4v-.636c.006-4.408.012-7.962-1.479-10.62a11.72,11.72,0,0,0-1.6,2.138.437.437,0,0,1-.376.22.363.363,0,0,1-.11-.017.432.432,0,0,1-.324-.416V34.2c-.618.208-1.329.456-2.074.734v6.535a2.2,2.2,0,1,1-.867,0ZM37.107,33.5c2.386-1.132,3.264-3.114,1.964-10.325C38.245,18.593,35.229,15.86,31,15.86s-7.245,2.733-8.072,7.315c-1.3,7.216-.422,9.192,1.964,10.325.913-.306,1.652-.543,2.057-.659v-1.3a10.083,10.083,0,0,1-2.721-4.426,2.05,2.05,0,0,1-1.34-2.132,2.452,2.452,0,0,1,1.023-2.092,8.022,8.022,0,0,1,.2-1.589.433.433,0,0,1,.422-.335,4.209,4.209,0,0,0,3.663-2.178.426.426,0,0,1,.456-.231.442.442,0,0,1,.364.358,3.116,3.116,0,0,0,1.733,2.357,8.474,8.474,0,0,0,6.587-.006.436.436,0,0,1,.612.312,7.664,7.664,0,0,1,.139,1.323A2.438,2.438,0,0,1,39.106,25a2.05,2.05,0,0,1-1.34,2.132,10.063,10.063,0,0,1-2.721,4.426v1.3C35.449,32.957,36.194,33.188,37.107,33.5ZM33.4,36.007a1.486,1.486,0,0,0-.491-.225.6.6,0,0,0-.462.052,6.77,6.77,0,0,0-1.028,1.849A.433.433,0,0,1,31,38h0a.432.432,0,0,1-.416-.318,6.688,6.688,0,0,0-1.028-1.843.6.6,0,0,0-.462-.052,1.843,1.843,0,0,0-.491.225c1.676,2.866,1.67,6.569,1.664,11.186v.63h1.462v-.63C31.722,42.577,31.716,38.873,33.4,36.007Zm-7.02,1.046a5.6,5.6,0,0,1,2.438-2.092,10.846,10.846,0,0,0-1.52-1.323c-.191.058-.508.156-.919.289ZM23.755,24.978c0,1.225.815,1.335.844,1.335a.4.4,0,0,1,.387.318c.78,2.86,3.091,5.76,6.009,5.76S36.223,29.5,37,26.63a.432.432,0,0,1,.416-.318c.006,0,.82-.11.82-1.335a1.523,1.523,0,0,0-.641-1.369.434.434,0,0,1-.364-.428h0a7.03,7.03,0,0,0-.058-.924,9.307,9.307,0,0,1-6.835-.231,4.05,4.05,0,0,1-1.924-2.045,4.956,4.956,0,0,1-3.53,1.832,7.624,7.624,0,0,0-.121,1.364H24.76a.424.424,0,0,1-.364.428A1.567,1.567,0,0,0,23.755,24.978Zm4.062,7.245v.716A10.614,10.614,0,0,1,31,36.47a10.614,10.614,0,0,1,3.184-3.53v-.716a5.417,5.417,0,0,1-6.367,0Zm7.806,4.83V33.922c-.41-.133-.728-.231-.919-.289a10.846,10.846,0,0,0-1.52,1.323A5.653,5.653,0,0,1,35.622,37.053ZM37.13,48.69H24.87v4.3H37.136v-4.3Zm8.112-.867c.017-3.8-.41-9.672-1.687-10.539a23.281,23.281,0,0,0-4.143-2.022v3.316c3.507,1.716,3.808,4.143,3.813,7.355a.558.558,0,0,1-.075.37c-.173.277-.56.4-1.277.422a.687.687,0,0,1-.462.335.184.184,0,0,1-.075.012.434.434,0,0,1-.428-.364.44.44,0,0,1,.22-.451.435.435,0,0,1,.295-.809.733.733,0,0,1,.48.41,2.7,2.7,0,0,0,.445-.04c-.012-3.039-.3-5.021-3.432-6.512-3.132,1.491-3.42,3.478-3.432,6.512a2.7,2.7,0,0,0,.445.04.733.733,0,0,1,.48-.41.43.43,0,0,1,.514.335.438.438,0,0,1-.22.474.44.44,0,0,1,.22.451.413.413,0,0,1-.416.364.281.281,0,0,1-.069-.006.687.687,0,0,1-.462-.335c-.716-.017-1.109-.144-1.277-.422a.526.526,0,0,1-.075-.37c0-3.247.312-5.685,3.917-7.407v-3.6c-.74-.277-1.444-.52-2.057-.728v4.287a.427.427,0,0,1-.324.416.363.363,0,0,1-.11.017.437.437,0,0,1-.376-.22,12,12,0,0,0-1.6-2.138c-1.485,2.658-1.485,6.211-1.479,10.62v.636H45.242ZM56.133,14.555a.729.729,0,0,0-.728-.728H6.595a.729.729,0,0,0-.728.728v32.54a.729.729,0,0,0,.728.728h9.3c-.006-2.12.1-9.926,2.068-11.261a29.091,29.091,0,0,1,5.847-2.687c-2.473-1.583-2.877-4.484-1.733-10.862.7-3.883,3.409-8.025,8.927-8.025s8.228,4.148,8.927,8.025c1.15,6.379.74,9.273-1.733,10.862a29.092,29.092,0,0,1,5.847,2.687C46,37.891,46.115,45.7,46.109,47.823h9.3a.729.729,0,0,0,.728-.728V14.555Z" transform="translate(-5 -12.96)" fill="#cbd6f3"/>
</svg>
