<svg xmlns="http://www.w3.org/2000/svg" width="16.046" height="15.333" viewBox="0 0 16.046 15.333">
  <path id="linkedin" d="M0,6.781A1.668,1.668,0,0,1,.542,5.5,1.989,1.989,0,0,1,1.951,5a1.929,1.929,0,0,1,1.378.5,1.747,1.747,0,0,1,.542,1.332,1.631,1.631,0,0,1-.527,1.239,1.992,1.992,0,0,1-1.425.511H1.905A1.9,1.9,0,0,1,.527,8.067,1.717,1.717,0,0,1,0,6.781ZM.2,20.333V9.987H3.64V20.333Zm5.343,0H8.983V14.556a2.016,2.016,0,0,1,.782-1.727,1.683,1.683,0,0,1,1.107-.364q1.735,0,1.735,2.339v5.529h3.438V14.4a4.985,4.985,0,0,0-1.084-3.477A3.7,3.7,0,0,0,12.1,9.739a3.515,3.515,0,0,0-3.113,1.719v.031H8.968l.015-.031V9.987H5.545q.031.5.031,3.082T5.545,20.333Z" transform="translate(0 -5)" fill="#fff"/>
</svg>
