<svg xmlns="http://www.w3.org/2000/svg" width="16.999" height="13.721"
                        viewBox="0 0 16.999 13.721">
                        <g id="Path_80512" data-name="Path 80512" transform="translate(-481.632 -355.79)" fill="#fff">
                          <path
                            d="M 497.6252136230469 369.0108337402344 L 496.619384765625 369.0108337402344 L 492.8463745117188 369.0108337402344 L 492.5978088378906 369.0108337402344 L 492.44775390625 368.8126831054688 L 489.3210754394531 364.6834716796875 L 485.41357421875 368.8527526855469 L 485.2654113769531 369.0108337402344 L 485.0487670898438 369.0108337402344 L 483.93994140625 369.0108337402344 L 482.7860412597656 369.0108337402344 L 483.5751342773438 368.1689147949219 L 488.2130737304688 363.2203979492188 L 483.5722045898438 357.091796875 L 482.9650268554688 356.2899475097656 L 483.9708251953125 356.2899475097656 L 487.7437744140625 356.2899475097656 L 487.9923400878906 356.2899475097656 L 488.1423950195312 356.4880981445312 L 490.9937744140625 360.2535705566406 L 494.5602111816406 356.4480285644531 L 494.7083740234375 356.2899475097656 L 494.925048828125 356.2899475097656 L 496.0338134765625 356.2899475097656 L 497.1876831054688 356.2899475097656 L 496.3986206054688 357.1318664550781 L 492.1015625 361.7168273925781 L 497.0179748535156 368.208984375 L 497.6252136230469 369.0108337402344 Z M 493.5039367675781 367.2042846679688 L 493.9828491210938 367.2042846679688 L 487.0860900878906 358.0965270996094 L 486.6071166992188 358.0965270996094 L 493.5039367675781 367.2042846679688 Z"
                            stroke="none" />
                          <path
                            d="M 483.9708251953125 356.7899475097656 L 488.8662109375 363.2546997070312 L 483.93994140625 368.5108337402344 L 485.0487670898438 368.5108337402344 L 489.3617553710938 363.9089050292969 L 492.8463745117188 368.5108337402344 L 496.619384765625 368.5108337402344 L 491.4484252929688 361.6825561523438 L 496.0338134765625 356.7899475097656 L 494.925048828125 356.7899475097656 L 490.953125 361.0281372070312 L 487.7437744140625 356.7899475097656 L 483.9708251953125 356.7899475097656 M 485.601318359375 357.5965270996094 L 487.3346557617188 357.5965270996094 L 494.9886474609375 367.7042846679688 L 493.25537109375 367.7042846679688 L 485.601318359375 357.5965270996094 M 481.959228515625 355.7899475097656 L 488.2409057617188 355.7899475097656 L 491.034423828125 359.47900390625 L 494.4917297363281 355.7899475097656 L 498.341552734375 355.7899475097656 L 492.7546997070312 361.7510986328125 L 498.6310424804688 369.5108337402344 L 492.3492431640625 369.5108337402344 L 489.2804260253906 365.4580383300781 L 485.4820861816406 369.5108337402344 L 481.6321411132812 369.5108337402344 L 487.5599365234375 363.1861267089844 L 481.959228515625 355.7899475097656 Z"
                            stroke="none" fill="#fff" />
                        </g>
                      </svg>